<svg width="64" height="64" viewBox="0 0 64 64" fill="none" xmlns="http://www.w3.org/2000/svg">
<g clip-path="url(#clip0_52_240)">
<path fill-rule="evenodd" clip-rule="evenodd" d="M9.10976 -6.01774e-06C7.77024 -0.0107016 6.48093 0.509158 5.52346 1.44601C4.566 2.38286 4.01821 3.66056 3.99976 4.99999V58.88C3.9931 59.5534 4.12065 60.2213 4.37497 60.8449C4.62928 61.4684 5.00527 62.035 5.48098 62.5117C5.95668 62.9883 6.52258 63.3654 7.14562 63.6209C7.76866 63.8765 8.43637 64.0053 9.10976 64H54.8898C55.5631 64.0053 56.2309 63.8765 56.8539 63.6209C57.4769 63.3654 58.0428 62.9883 58.5185 62.5117C58.9943 62.035 59.3702 61.4684 59.6246 60.8449C59.8789 60.2213 60.0064 59.5534 59.9998 58.88V20.28L41.0598 -6.01774e-06H9.10976Z" fill="#107CAD"/>
<path fill-rule="evenodd" clip-rule="evenodd" d="M59.9997 20.35V21.35H47.1797C47.1797 21.35 40.8697 20.09 41.0497 14.64C41.0497 14.64 41.2597 20.35 47.0497 20.35H59.9997Z" fill="#084968"/>
<path opacity="0.5" fill-rule="evenodd" clip-rule="evenodd" d="M41.0699 0V14.56C41.0672 15.3485 41.2259 16.1291 41.5362 16.854C41.8465 17.5788 42.3018 18.2325 42.8741 18.7749C43.4464 19.3172 44.1236 19.7368 44.8641 20.0076C45.6046 20.2785 46.3927 20.395 47.1799 20.35H59.9999L41.0699 0Z" fill="#90D0FE"/>
<path d="M18.2402 53.86H15.2402C14.9537 53.86 14.679 53.7462 14.4765 53.5437C14.2739 53.3411 14.1602 53.0664 14.1602 52.78V42.93C14.1602 42.6436 14.2739 42.3689 14.4765 42.1663C14.679 41.9638 14.9537 41.85 15.2402 41.85H18.2402C19.8315 41.85 21.3576 42.4822 22.4828 43.6074C23.608 44.7326 24.2402 46.2587 24.2402 47.85C24.2402 49.4413 23.608 50.9674 22.4828 52.0926C21.3576 53.2179 19.8315 53.85 18.2402 53.85V53.86ZM18.2402 43.19H15.6302V52.53H18.2402C18.8575 52.5591 19.4741 52.458 20.05 52.2335C20.6258 52.0089 21.148 51.6658 21.5826 51.2264C22.0173 50.787 22.3548 50.2611 22.5731 49.6829C22.7915 49.1047 22.8859 48.487 22.8502 47.87C22.8937 47.2502 22.8048 46.6283 22.5895 46.0455C22.3741 45.4626 22.0373 44.9323 21.6013 44.4897C21.1653 44.047 20.6401 43.7022 20.0606 43.4782C19.4811 43.2541 18.8605 43.1559 18.2402 43.19ZM32.6602 54.08C31.8486 54.1009 31.0415 53.9529 30.2901 53.6454C29.5387 53.3379 28.8594 52.8776 28.2953 52.2937C27.7312 51.7099 27.2945 51.0151 27.013 50.2536C26.7316 49.4921 26.6114 48.6804 26.6602 47.87C26.5626 47.0293 26.644 46.1776 26.899 45.3706C27.154 44.5636 27.5768 43.8197 28.1396 43.1877C28.7025 42.5558 29.3927 42.05 30.1649 41.7037C30.9371 41.3574 31.7739 41.1783 32.6202 41.1783C33.4665 41.1783 34.3032 41.3574 35.0754 41.7037C35.8476 42.05 36.5378 42.5558 37.1007 43.1877C37.6635 43.8197 38.0864 44.5636 38.3413 45.3706C38.5963 46.1776 38.6777 47.0293 38.5802 47.87C38.6268 48.6732 38.5078 49.4774 38.2306 50.2327C37.9534 50.988 37.5239 51.6783 36.9688 52.2606C36.4136 52.843 35.7447 53.305 35.0035 53.618C34.2623 53.9309 33.4647 54.0882 32.6602 54.08ZM32.6602 42.99C29.9602 42.99 28.2502 45.06 28.2502 47.87C28.2502 50.68 29.9602 52.75 32.6602 52.75C35.3602 52.75 37.0702 50.66 37.0702 47.87C37.0702 45.08 35.3502 43 32.6602 43V42.99ZM51.1102 43.37C51.2411 43.5112 51.3127 43.6974 51.3102 43.89C51.3115 43.9832 51.2944 44.0758 51.26 44.1625C51.2255 44.2491 51.1743 44.3281 51.1093 44.395C51.0443 44.4619 50.9668 44.5153 50.8811 44.5522C50.7955 44.589 50.7034 44.6087 50.6102 44.61C50.5125 44.6116 50.4157 44.5908 50.3273 44.5492C50.2389 44.5076 50.1612 44.4463 50.1002 44.37C49.7247 43.9426 49.2636 43.599 48.7468 43.3612C48.23 43.1235 47.669 42.997 47.1002 42.99C46.4697 42.9862 45.8451 43.1117 45.2651 43.3589C44.6851 43.6061 44.1619 43.9696 43.7279 44.4269C43.294 44.8843 42.9585 45.4259 42.7421 46.0181C42.5258 46.6103 42.4332 47.2406 42.4702 47.87C42.4362 48.4987 42.5308 49.1278 42.7482 49.7187C42.9656 50.3096 43.3012 50.85 43.7346 51.3068C44.168 51.7635 44.6899 52.1271 45.2686 52.3753C45.8473 52.6234 46.4705 52.7509 47.1002 52.75C47.6689 52.748 48.2306 52.6248 48.7479 52.3886C49.2652 52.1523 49.7262 51.8085 50.1002 51.38C50.1639 51.3068 50.2421 51.2477 50.3299 51.2064C50.4177 51.1651 50.5132 51.1425 50.6102 51.14C50.7047 51.1426 50.7978 51.1638 50.8842 51.2024C50.9706 51.241 51.0485 51.2962 51.1135 51.365C51.1785 51.4337 51.2293 51.5145 51.2631 51.6029C51.2968 51.6913 51.3128 51.7854 51.3102 51.88C51.3073 52.0686 51.2363 52.2498 51.1102 52.39C50.5994 52.9367 49.9792 53.3697 49.2901 53.6608C48.6009 53.952 47.8582 54.0948 47.1102 54.08C45.505 54.0156 43.987 53.3326 42.874 52.1742C41.7611 51.0157 41.1395 49.4715 41.1395 47.865C41.1395 46.2585 41.7611 44.7144 42.874 43.5559C43.987 42.3974 45.505 41.7144 47.1102 41.65C47.861 41.6345 48.6065 41.78 49.2965 42.0767C49.9864 42.3734 50.6049 42.8144 51.1102 43.37Z" fill="white"/>
</g>
<defs>
<clipPath id="clip0_52_240">
<rect width="64" height="64" fill="white"/>
</clipPath>
</defs>
</svg>
