<svg width="18" height="18" viewBox="0 0 18 18" fill="none" xmlns="http://www.w3.org/2000/svg">
<path d="M16.2534 2.99854H1.7466C0.788098 2.99854 0 3.77561 0 4.74514V13.2552C0 14.2145 0.780248 15.0019 1.7466 15.0019H16.2534C17.2203 15.0019 18 14.2138 18 13.2552V4.74514C18 3.77471 17.2111 2.99854 16.2534 2.99854ZM15.9131 3.95117L9 8.43247L2.08699 3.95117H15.9131ZM0.952692 4.74514C0.952692 4.62464 0.979954 4.50774 1.03076 4.40193L5.35521 7.20518L0.952692 13.093V4.74514ZM16.2534 14.0492H1.7466C1.64786 14.0492 1.55361 14.0302 1.46625 13.9971L6.15643 7.72455L8.74092 9.3999C8.89862 9.50212 9.10156 9.502 9.2592 9.3999L11.8436 7.72455L16.5338 13.9971C16.4465 14.0302 16.3522 14.0492 16.2534 14.0492ZM17.0473 13.093L12.6448 7.20518L16.9692 4.40193C17.02 4.50774 17.0473 4.62464 17.0473 4.74514V13.093Z" fill="white"/>
</svg>
