<svg width="28" height="28" viewBox="0 0 28 28" fill="none" xmlns="http://www.w3.org/2000/svg">
<path d="M25.2831 4.66409H2.71694C1.22593 4.66409 0 5.87287 0 7.38103V20.619C0 22.1112 1.21372 23.3359 2.71694 23.3359H25.2831C26.7871 23.3359 28 22.1101 28 20.619V7.38103C28 5.87148 26.7729 4.66409 25.2831 4.66409ZM24.7538 6.14596L14 13.1169L3.24644 6.14596H24.7538ZM1.48196 7.38103C1.48196 7.19359 1.52437 7.01175 1.60341 6.84715L8.33032 11.2078L1.48196 20.3666V7.38103ZM25.2831 21.854H2.71694C2.56333 21.854 2.41672 21.8244 2.28083 21.773L9.57666 12.0157L13.597 14.6218C13.8423 14.7808 14.158 14.7806 14.4032 14.6218L18.4234 12.0157L25.7193 21.773C25.5834 21.8245 25.4368 21.854 25.2831 21.854ZM26.518 20.3666L19.6697 11.2078L26.3966 6.84715C26.4756 7.01175 26.518 7.19359 26.518 7.38103V20.3666Z" fill="#004581"/>
</svg>
