<svg width="28" height="28" viewBox="0 0 28 28" fill="none" xmlns="http://www.w3.org/2000/svg">
<path d="M13.997 0.871582C8.6916 0.871582 4.37284 5.19036 4.37283 10.4957C4.37283 19.8309 13.4544 26.9278 13.4544 26.9278C13.6094 27.0515 13.8019 27.1189 14.0002 27.1189C14.1985 27.1189 14.391 27.0515 14.546 26.9278C14.546 26.9278 23.6276 19.8309 23.6276 10.4957C23.6276 5.19036 19.3023 0.871582 13.997 0.871582ZM13.997 2.62201C18.3566 2.62201 21.8771 6.13612 21.8771 10.4957C21.8772 18.1326 14.9618 24.1664 14.0034 24.9836C13.0496 24.1705 6.12326 18.1356 6.12326 10.4957C6.12327 6.13612 9.63737 2.62201 13.997 2.62201Z" fill="#004581"/>
<path d="M13.997 6.12286C11.5911 6.12286 9.62412 8.08984 9.62411 10.4957C9.6241 12.9016 11.5911 14.875 13.997 14.875C16.4029 14.875 18.3763 12.9016 18.3763 10.4957C18.3763 8.08984 16.4028 6.12286 13.997 6.12286ZM13.997 7.87329C15.4571 7.87329 16.6258 9.0356 16.6258 10.4957C16.6258 11.9558 15.4571 13.1246 13.997 13.1246C12.5368 13.1246 11.3745 11.9558 11.3745 10.4957C11.3746 9.0356 12.5369 7.87329 13.997 7.87329Z" fill="#004581"/>
</svg>
