<svg width="18" height="18" viewBox="0 0 18 18" fill="none" xmlns="http://www.w3.org/2000/svg">
<path d="M8.99807 0.560059C5.58748 0.560059 2.81113 3.33642 2.81113 6.747C2.81112 12.7482 8.64928 17.3105 8.64928 17.3105C8.74894 17.39 8.87265 17.4333 9.00015 17.4333C9.12765 17.4333 9.25136 17.39 9.35102 17.3105C9.35102 17.3105 15.1892 12.7482 15.1892 6.747C15.1892 3.33642 12.4087 0.560059 8.99807 0.560059ZM8.99807 1.68534C11.8007 1.68534 14.0639 3.9444 14.0639 6.747C14.0639 11.6565 9.61833 15.5353 9.00223 16.0606C8.38906 15.5379 3.9364 11.6584 3.9364 6.747C3.9364 3.9444 6.19547 1.68534 8.99807 1.68534Z" fill="white"/>
<path d="M8.99807 3.93604C7.45143 3.93604 6.18696 5.20052 6.18695 6.74715C6.18694 8.2938 7.45142 9.56242 8.99807 9.56242C10.5447 9.56242 11.8133 8.2938 11.8133 6.74715C11.8133 5.20052 10.5447 3.93604 8.99807 3.93604ZM8.99807 5.06131C9.93671 5.06131 10.6881 5.80851 10.6881 6.74715C10.6881 7.68579 9.93671 8.43714 8.99807 8.43714C8.05942 8.43714 7.31222 7.68579 7.31223 6.74715C7.31223 5.80851 8.05943 5.06131 8.99807 5.06131Z" fill="white"/>
</svg>
