<svg width="39" height="39" viewBox="0 0 39 39" fill="none" xmlns="http://www.w3.org/2000/svg">
<path d="M22.8021 0H16.1974C15.053 0 14.1221 0.930951 14.1221 2.0753V8.68006C14.1221 9.82441 15.053 10.7554 16.1974 10.7554H22.8021C23.9465 10.7554 24.8774 9.82441 24.8774 8.68006V2.0753C24.8774 0.930951 23.9465 0 22.8021 0Z" fill="white"/>
<path d="M22.8021 14.1223H16.1974C15.053 14.1223 14.1221 15.0532 14.1221 16.1976V22.8023C14.1221 23.9467 15.053 24.8776 16.1974 24.8776H22.8021C23.9465 24.8776 24.8774 23.9467 24.8774 22.8023V16.1976C24.8774 15.0532 23.9465 14.1223 22.8021 14.1223Z" fill="white"/>
<path d="M22.8021 28.2446H16.1974C15.053 28.2446 14.1221 29.1756 14.1221 30.3199V36.9247C14.1221 38.069 15.053 39 16.1974 39H22.8021C23.9465 39 24.8774 38.069 24.8774 36.9247V30.3199C24.8774 29.1754 23.9465 28.2446 22.8021 28.2446Z" fill="white"/>
</svg>
