<svg width="56" height="64" viewBox="0 0 56 64" fill="none" xmlns="http://www.w3.org/2000/svg">
<path d="M5.1 0C2.3 0 0 2.3 0 5.1V58.9C0 61.7 2.3 64 5.1 64H50.9C53.7 64 56 61.7 56 58.9V20.3L37.1 0H5.1Z" fill="#8C181A"/>
<path d="M56.0004 20.4V21.4H43.2004C43.2004 21.4 36.9004 20.1 37.1004 14.7C37.1004 14.7 37.3004 20.4 43.1004 20.4H56.0004Z" fill="#6B0D12"/>
<path opacity="0.5" d="M37.0996 0V14.6C37.0996 16.3 38.1996 20.4 43.1996 20.4H55.9996L37.0996 0Z" fill="white"/>
<path d="M14.8996 49H11.5996V53.1C11.5996 53.5 11.2996 53.8 10.7996 53.8C10.3996 53.8 10.0996 53.5 10.0996 53.1V42.9C10.0996 42.3 10.5996 41.8 11.1996 41.8H14.8996C17.2996 41.8 18.6996 43.5 18.6996 45.4C18.6996 47.4 17.2996 49 14.8996 49ZM14.7996 43.1H11.5996V47.7H14.7996C16.1996 47.7 17.1996 46.8 17.1996 45.4C17.1996 44 16.1996 43.1 14.7996 43.1ZM25.1996 53.8H22.1996C21.5996 53.8 21.0996 53.3 21.0996 52.7V42.9C21.0996 42.3 21.5996 41.8 22.1996 41.8H25.1996C28.8996 41.8 31.3996 44.4 31.3996 47.8C31.3996 51.2 28.9996 53.8 25.1996 53.8ZM25.1996 43.1H22.5996V52.4H25.1996C28.0996 52.4 29.7996 50.3 29.7996 47.7C29.8996 45.2 28.1996 43.1 25.1996 43.1ZM41.4996 43.1H35.6996V47H41.3996C41.7996 47 41.9996 47.3 41.9996 47.7C41.9996 48.1 41.6996 48.3 41.3996 48.3H35.6996V53.1C35.6996 53.5 35.3996 53.8 34.8996 53.8C34.4996 53.8 34.1996 53.5 34.1996 53.1V42.9C34.1996 42.3 34.6996 41.8 35.2996 41.8H41.4996C41.8996 41.8 42.0996 42.1 42.0996 42.5C42.1996 42.8 41.8996 43.1 41.4996 43.1Z" fill="white"/>
</svg>
