<svg width="18" height="18" viewBox="0 0 18 18" fill="none" xmlns="http://www.w3.org/2000/svg">
<path d="M13.3022 18C13.3018 18 13.3018 18 13.3022 18C13.2421 18 13.1812 17.9988 13.121 17.9968C10.8301 17.9214 8.0584 16.7567 5.70611 14.8811C5.32603 14.5772 4.77875 14.0873 4.4596 13.7645C2.13017 11.4138 0.631872 8.23522 0.45105 5.26268C0.310322 2.94728 1.28259 0.435015 3.7712 0.0424992C3.95082 0.0144337 4.13364 0 4.31446 0C6.27384 0 8.0143 1.66789 8.36311 3.87985C8.58443 5.28353 8.228 6.66395 7.38523 7.66629C7.22325 7.85874 7.17193 8.12055 7.23448 8.22559C7.83348 9.23395 8.6598 10.1192 9.62486 10.7868C9.68339 10.8269 9.73672 10.8589 9.78443 10.8842C10.4821 10.015 11.5638 9.52021 12.7786 9.52021C13.7761 9.52021 14.7941 9.86181 15.6449 10.4809C17.2519 11.65 17.9282 13.5171 17.3685 15.238C16.8144 16.9415 15.256 18 13.3022 18ZM4.31446 1.20281C4.19579 1.20281 4.07591 1.21203 3.95803 1.23087C1.96659 1.5448 1.57086 3.86702 1.65145 5.18971C1.81503 7.87918 3.18423 10.7683 5.314 12.9181C5.60067 13.208 6.11306 13.6667 6.45626 13.9409C8.12095 15.2688 10.7567 16.7158 13.1599 16.7948C13.2076 16.7964 13.2549 16.7972 13.3018 16.7972H13.3022C14.9942 16.7972 15.9211 15.7997 16.2247 14.8663C16.5398 13.8984 16.3666 12.4936 14.9373 11.4535C14.2905 10.9824 13.524 10.723 12.7786 10.723C11.8929 10.723 11.1199 11.0871 10.6581 11.7218C10.6292 11.7614 10.6007 11.8031 10.5751 11.846C10.4488 12.0529 10.2263 12.1708 9.96445 12.1708C9.55589 12.1712 9.11286 11.895 8.94126 11.7767C7.83468 11.0117 6.88687 9.99652 6.20047 8.84023C5.80995 8.18229 6.06375 7.3696 6.46508 6.89288C7.0745 6.16799 7.33992 5.11193 7.17514 4.06789C6.91734 2.43408 5.68807 1.20281 4.31446 1.20281Z" fill="white"/>
</svg>
