<svg width="28" height="28" viewBox="0 0 28 28" fill="none" xmlns="http://www.w3.org/2000/svg">
<path d="M20.6924 28C20.6917 28 20.6917 28 20.6924 28C20.5988 28 20.504 27.9981 20.4105 27.995C16.8468 27.8778 12.5353 26.066 8.87617 23.1484C8.28493 22.6757 7.43361 21.9135 6.93716 21.4115C3.31359 17.7549 0.982912 12.8103 0.701634 8.18639C0.482723 4.58465 1.99514 0.67669 5.86631 0.0661098C6.14571 0.0224524 6.43011 0 6.71139 0C9.7593 0 12.4667 2.5945 13.0093 6.03533C13.3536 8.21882 12.7991 10.3661 11.4881 11.9253C11.2362 12.2247 11.1563 12.632 11.2536 12.7954C12.1854 14.3639 13.4708 15.741 14.972 16.7794C15.0631 16.8418 15.146 16.8917 15.2202 16.931C16.3054 15.5788 17.9881 14.8092 19.8778 14.8092C21.4296 14.8092 23.0131 15.3406 24.3365 16.3036C26.8362 18.1222 27.8884 21.0267 27.0177 23.7035C26.1558 26.3535 23.7315 28 20.6924 28ZM6.71139 1.87103C6.52678 1.87103 6.3403 1.88538 6.15694 1.91469C3.05913 2.40303 2.44357 6.01537 2.56892 8.07288C2.82338 12.2565 4.95324 16.7507 8.26622 20.0949C8.71215 20.5458 9.50921 21.2593 10.0431 21.6859C12.6326 23.7515 16.7326 26.0024 20.471 26.1252C20.5452 26.1277 20.6188 26.129 20.6917 26.129H20.6924C23.3243 26.129 24.7662 24.5773 25.2383 23.1253C25.7286 21.6198 25.4591 19.4344 23.2357 17.8166C22.2297 17.0838 21.0373 16.6803 19.8778 16.6803C18.5001 16.6803 17.2977 17.2466 16.5792 18.2338C16.5343 18.2956 16.49 18.3604 16.4501 18.4272C16.2537 18.749 15.9075 18.9324 15.5003 18.9324C14.8647 18.933 14.1756 18.5033 13.9086 18.3193C12.1873 17.1293 10.7129 15.5502 9.64517 13.7515C9.03771 12.728 9.43249 11.4638 10.0568 10.7223C11.0048 9.59465 11.4177 7.95189 11.1613 6.32783C10.7603 3.78635 8.84811 1.87103 6.71139 1.87103Z" fill="#004581"/>
</svg>
