<svg width="89" height="89" viewBox="0 0 89 89" fill="none" xmlns="http://www.w3.org/2000/svg">
<g clip-path="url(#clip0_122_435)">
<path d="M50.1064 40.6539C48.2902 40.5084 46.51 40.874 44.9297 41.6931L38.2697 33.8726C38.8634 33.7046 39.4886 33.6408 40.1224 33.6908C41.5196 33.803 42.7897 34.4522 43.6986 35.5195C44.4798 36.4373 45.858 36.5476 46.7756 35.7662C47.6934 34.9847 47.8039 33.607 47.0222 32.6892C45.3575 30.7341 43.0309 29.5445 40.4712 29.3393C38.6528 29.1927 36.8734 29.5587 35.2938 30.3781L34.3151 29.2287C33.5332 28.3108 32.1559 28.2004 31.2381 28.982C30.3202 29.7637 30.2098 31.1414 30.9914 32.059L31.9726 33.2108C29.378 36.7228 29.4345 41.6912 32.3844 45.1549C34.0492 47.11 36.3758 48.2996 38.9355 48.5048C40.7535 48.651 42.5328 48.2852 44.1125 47.466L50.7726 55.2865C50.1793 55.4543 49.5546 55.5179 48.9199 55.4679C47.5225 55.3557 46.2524 54.7065 45.3435 53.6392C44.5619 52.7214 43.1841 52.6109 42.2665 53.3925C41.3487 54.1742 41.2382 55.5519 42.0199 56.4695C43.6849 58.4246 46.0114 59.6142 48.5711 59.8194C48.8332 59.8405 49.0943 59.851 49.3547 59.851C50.8983 59.851 52.397 59.4826 53.749 58.7817L54.7273 59.9305C55.1592 60.4375 55.7726 60.6981 56.3901 60.6981C56.8903 60.6981 57.3935 60.527 57.8043 60.1771C58.7221 59.3955 58.8325 58.0177 58.0509 57.1001L57.0717 55.9503C58.1319 54.5212 58.7762 52.8224 58.922 51.0046C59.127 48.445 58.3233 45.9588 56.6583 44.004C54.9925 42.0485 52.6659 40.8589 50.1064 40.6539ZM39.2838 44.1535C37.8867 44.0413 36.6165 43.3922 35.7076 42.3248C34.3362 40.7146 34.1108 38.509 34.9481 36.7054L41.1363 43.9719C40.5424 44.14 39.9172 44.2037 39.2838 44.1535ZM47.9052 45.187C48.4991 45.019 49.124 44.9552 49.7576 45.0052C51.155 45.1174 52.4251 45.7665 53.334 46.8339C54.2429 47.9012 54.6819 49.2582 54.5699 50.6556C54.519 51.2895 54.3566 51.8967 54.0958 52.4564L47.9052 45.187Z" fill="#004581"/>
<path d="M69.0488 23.6907C57.5307 10.1663 37.1572 8.53382 23.6319 20.0514C17.0802 25.6311 13.0937 33.428 12.4062 42.0061C11.719 50.5843 14.4132 58.9166 19.9929 65.468C25.5726 72.0199 33.3693 76.0065 41.9476 76.694C42.8259 76.7643 43.7014 76.7992 44.5732 76.7992C52.2132 76.7992 59.529 74.1153 65.4095 69.1073C78.9343 57.5893 80.5668 37.2155 69.0488 23.6907ZM61.1639 64.122C55.9437 68.5675 49.3054 70.7151 42.4704 70.1666C35.6358 69.6189 29.4238 66.4424 24.978 61.2222C20.5324 56.0022 18.3857 49.3634 18.9334 42.5287C19.481 35.6941 22.6575 29.4821 27.8775 25.0363C32.7005 20.9291 38.6141 18.921 44.5018 18.921C51.7686 18.921 58.9938 21.9829 64.0634 27.9358C73.2405 38.7122 71.9398 54.9449 61.1639 64.122Z" fill="#004581"/>
<path d="M80.6321 18.5759L83.3625 19.3691C84.5197 19.7052 85.7311 19.0395 86.0675 17.8818C86.4036 16.7241 85.7377 15.5131 84.5802 15.1767L75.4127 12.514C74.7529 12.3228 74.0422 12.4525 73.4933 12.8646C72.9443 13.2771 72.6213 13.9236 72.6213 14.6101V24.6941C72.6213 25.8994 73.5987 26.8768 74.804 26.8768C76.0093 26.8768 76.9867 25.8994 76.9867 24.6941V20.9813C89.2015 37.7612 86.6014 61.4588 70.5431 75.1347C64.1483 80.5804 56.361 83.8411 48.0235 84.5638C46.8223 84.6682 45.9333 85.7259 46.0372 86.9269C46.1358 88.0638 47.089 88.9214 48.2092 88.9214C48.2725 88.9214 48.3363 88.9186 48.4002 88.9131C57.6478 88.1114 66.2833 84.4962 73.3732 78.4583C91.1273 63.3386 94.0428 37.1714 80.6321 18.5759Z" fill="#004581"/>
<path d="M40.5053 84.5123C30.1443 83.4718 20.7191 78.5316 13.9653 70.6014C4.9921 60.0649 2.08864 45.873 6.19806 32.6381C6.55559 31.4869 5.91212 30.2637 4.76095 29.9062C3.60935 29.5489 2.38658 30.1923 2.02905 31.3433C-2.52695 46.0156 0.692787 61.7495 10.6417 73.4315C18.1301 82.2244 28.5808 87.7022 40.0689 88.8559C40.1432 88.8634 40.2167 88.8671 40.2896 88.8671C41.3969 88.8671 42.346 88.0274 42.4588 86.9022C42.5795 85.7028 41.7047 84.6328 40.5053 84.5123Z" fill="#004581"/>
<path d="M6.20263 26.4656C6.53113 26.6419 6.88473 26.7255 7.23331 26.7255C8.01124 26.7255 8.7645 26.3084 9.15826 25.575C9.78252 24.4123 10.4727 23.2681 11.2092 22.1743C11.8827 21.1744 11.618 19.8181 10.6181 19.1447C9.61816 18.4711 8.26182 18.7357 7.58844 19.7358C6.77101 20.9496 6.0051 22.2193 5.31186 23.5099C4.74195 24.5718 5.14052 25.895 6.20263 26.4656Z" fill="#004581"/>
<path d="M17.0846 14.5448C17.5849 14.5448 18.088 14.3737 18.4988 14.0238C26.2444 7.42761 36.1045 4.03827 46.2616 4.48224C47.4647 4.53703 48.4847 3.60129 48.5373 2.39664C48.5899 1.19222 47.6561 0.17332 46.4517 0.120934C35.1914 -0.370179 24.2562 3.38673 15.6685 10.7004C14.7506 11.482 14.6402 12.8598 15.4218 13.7774C15.8538 14.2844 16.4671 14.5448 17.0846 14.5448Z" fill="#004581"/>
</g>
<defs>
<clipPath id="clip0_122_435">
<rect width="89" height="89" fill="white"/>
</clipPath>
</defs>
</svg>
