<svg width="81" height="88" viewBox="0 0 81 88" fill="none" xmlns="http://www.w3.org/2000/svg">
<path d="M77.8468 11.8299C74.6432 3.98027 68.437 0 59.4002 0C55.7386 0 52.9062 0.794326 50.1664 1.56309C47.2566 2.37938 44.5082 3.14994 40.4998 3.14994C36.4918 3.14994 33.7434 2.37902 30.8336 1.56309C28.0945 0.794326 25.2618 0 21.6002 0C12.5637 0 6.35713 3.98027 3.15354 11.8299C0.536152 18.2421 0 26.6693 0 37.3502C0 46.7741 3.86325 58.81 10.3334 69.5453C13.5511 74.8838 22.0107 87.3006 31.05 87.3006C33.3473 87.3006 34.7062 86.2535 35.4422 85.3749C37.8954 82.4453 36.9686 77.2462 36.0723 72.2181C35.6817 70.0274 35.3129 67.9577 35.3129 66.5347C35.3129 60.7955 36.9858 59.7854 40.4998 59.7854C44.0145 59.7854 45.6871 60.7955 45.6871 66.5347C45.6871 67.9577 45.3183 70.0274 44.9277 72.2181C44.0314 77.2462 43.1046 82.445 45.5578 85.3745C46.2934 86.2531 47.6527 87.3006 49.95 87.3006C58.9893 87.3006 67.4493 74.8841 70.6666 69.5453C77.1371 58.81 81 46.7741 81 37.3502C81.0004 26.669 80.4642 18.2418 77.8468 11.8299ZM66.041 66.7569C60.5823 75.8138 54.1157 81.8991 49.95 81.8991C49.8074 81.8991 49.7213 81.8851 49.6774 81.875C49.595 81.736 49.3029 81.1019 49.398 79.2C49.4869 77.4176 49.8722 75.2564 50.2453 73.1658C50.6788 70.7332 51.0886 68.4352 51.0886 66.5343C51.0886 58.4719 47.526 54.384 40.5002 54.384C33.4744 54.384 29.9122 58.4723 29.9122 66.5343C29.9122 68.4352 30.3219 70.7332 30.7555 73.1658C31.1281 75.2561 31.5134 77.4176 31.6027 79.2C31.6978 81.1015 31.4054 81.736 31.3233 81.875C31.2794 81.8851 31.1933 81.8991 31.0507 81.8991C26.8854 81.8991 20.4188 75.8142 14.9597 66.7569C9.06417 56.9751 5.40149 45.7069 5.40149 37.3499C5.40113 16.1605 7.90653 5.40113 21.6002 5.40113C24.5186 5.40113 26.7691 6.03234 29.3753 6.76329C32.3628 7.60119 35.7486 8.55107 40.5002 8.55107C45.2517 8.55107 48.6379 7.60119 51.6254 6.76329C54.2309 6.03234 56.4814 5.40113 59.4002 5.40113C73.0938 5.40113 75.5992 16.1605 75.5992 37.3502C75.5992 45.7072 71.9365 56.9751 66.041 66.7569Z" fill="#004581"/>
<path d="M17.0808 12.3967C15.7053 11.8224 14.1228 12.4741 13.5496 13.851C13.4369 14.1215 10.7824 20.5949 10.1757 30.9914C10.0889 32.4806 11.2253 33.7582 12.7142 33.8449C12.7678 33.8482 12.8211 33.8496 12.8741 33.8496C14.2935 33.8496 15.4839 32.7417 15.5674 31.3064C16.1169 21.8951 18.5132 15.9813 18.5373 15.9229C19.1073 14.5471 18.456 12.9696 17.0808 12.3967Z" fill="#004581"/>
<path d="M13.1675 41.665C14.659 41.665 15.8681 40.4559 15.8681 38.9644C15.8681 37.473 14.659 36.2639 13.1675 36.2639C11.6761 36.2639 10.467 37.473 10.467 38.9644C10.467 40.4559 11.6761 41.665 13.1675 41.665Z" fill="#004581"/>
</svg>
