<svg width="124" height="124" viewBox="0 0 124 124" fill="none" xmlns="http://www.w3.org/2000/svg">
<path d="M25.8334 59.4167V95.5833C25.8334 97.0101 26.99 98.1667 28.4167 98.1667H38.75C40.1768 98.1667 41.3334 97.0101 41.3334 95.5833V59.4167C41.3334 57.9899 40.1768 56.8333 38.75 56.8333H28.4167C26.99 56.8333 25.8334 57.9899 25.8334 59.4167ZM43.9167 53.6401L48.4735 44.5265C50.5734 40.3267 51.6667 35.6956 51.6667 31V29.7083C51.6667 24.7147 55.7148 20.6667 60.7084 20.6667C65.7019 20.6667 69.883 24.4505 70.3798 29.4192L72.0879 46.5H89.3318C96.4655 46.5 102.248 52.283 102.248 59.4167C102.248 59.8459 102.227 60.2748 102.184 60.7019L99.0844 91.7019C98.4241 98.3049 92.8678 103.333 86.2318 103.333H54.25C50.7751 103.333 47.6207 101.961 45.2991 99.7291C43.9249 101.895 41.5054 103.333 38.75 103.333H28.4167C24.1365 103.333 20.6667 99.8635 20.6667 95.5833V59.4167C20.6667 55.1364 24.1365 51.6667 28.4167 51.6667H38.75C40.735 51.6667 42.5456 52.4129 43.9167 53.6401ZM46.5 60.0265V90.4167C46.5 94.6969 49.9698 98.1667 54.25 98.1667H86.2318C90.2134 98.1667 93.5472 95.1496 93.9434 91.1878L97.0434 60.1878C97.069 59.9316 97.0818 59.6742 97.0818 59.4167C97.0818 55.1364 93.612 51.6667 89.3318 51.6667H69.75C68.4228 51.6667 67.3116 50.661 67.1795 49.3404L65.2388 29.9333C65.0061 27.6058 63.0475 25.8333 60.7084 25.8333C58.5682 25.8333 56.8334 27.5682 56.8334 29.7083V31C56.8334 36.4977 55.5533 41.9198 53.0947 46.8371L46.5 60.0265Z" fill="#004581"/>
</svg>
